# xmcd CD database file
#
# Track frame offsets:
#	150
#	32180
#	58718
#	107507
#	126190
#	182188
#	204356
#	244164
#
# Disc length: 3465 seconds
#
# Revision: 0
# Processed by: cddbd v1.5.2PL0 Copyright (c) Steve Scherf et al.
# Submitted via: CDex 1.70beta2
#
DISCID=6d0d8708
DTITLE=Karl Seglem - Nunatak
DYEAR=2018
DGENRE=Jazz
TTITLE0=Nunatak
TTITLE1=Stjernebalsam
TTITLE2=Rindabotn
TTITLE3=Polarnatt
TTITLE4=Tid Kvervlar
TTITLE5=Nordre
TTITLE6=Men Argue Nature Acts
TTITLE7=Nunatakpeak
EXTD=YEAR: 2018
EXTT0=
EXTT1=
EXTT2=
EXTT3=
EXTT4=
EXTT5=
EXTT6=
EXTT7=
PLAYORDER=
